<?xml version="1.0" encoding="utf-8"?>
<!-- Generator: Adobe Illustrator 16.0.0, SVG Export Plug-In . SVG Version: 6.00 Build 0)  -->
<!DOCTYPE svg PUBLIC "-//W3C//DTD SVG 1.1//EN" "http://www.w3.org/Graphics/SVG/1.1/DTD/svg11.dtd">
<svg version="1.1" id="Layer_2" xmlns="http://www.w3.org/2000/svg" xmlns:xlink="http://www.w3.org/1999/xlink" x="0px" y="0px"
	 width="18px" height="18px" viewBox="0 0 18 18" enable-background="new 0 0 18 18" xml:space="preserve">
<g>
	<path fill="#D3D7DA" d="M18,3c0-1.657-1.343-3-3-3H3C1.343,0,0,1.343,0,3v12c0,1.657,1.343,3,3,3h12c1.657,0,3-1.343,3-3V3z"/>
	<path fill="#FFFFFF" d="M17,3.667C17,2.194,15.807,1,14.333,1H3.667C2.194,1,1,2.194,1,3.667v10.667C1,15.807,2.194,17,3.667,17
		h10.667C15.807,17,17,15.807,17,14.333V3.667z"/>
</g>
<polygon fill="#474747" points="14.98,5.938 13.357,4.465 7.542,10.344 4.729,7.465 3.02,8.999 7.528,13.535 7.542,13.521 
	7.557,13.535 "/>
</svg>
