<?xml version="1.0" encoding="utf-8"?>
<!-- Generator: Adobe Illustrator 22.0.1, SVG Export Plug-In . SVG Version: 6.00 Build 0)  -->
<svg version="1.1" id="Layer_1" xmlns="http://www.w3.org/2000/svg" xmlns:xlink="http://www.w3.org/1999/xlink" x="0px" y="0px"
	 width="46px" height="46px" viewBox="0 0 46 46" enable-background="new 0 0 46 46" xml:space="preserve">
<g id="Ellipse_1_copy">
	<g>
		<path fill-rule="evenodd" clip-rule="evenodd" fill="#E02F26" d="M23,0C10.3,0,0,10.3,0,23c0,12.7,10.3,23,23,23s23-10.3,23-23
			C46,10.3,35.7,0,23,0z M23,44.2C11.2,44.2,1.7,34.7,1.7,23C1.7,11.2,11.2,1.7,23,1.7S44.2,11.2,44.2,23
			C44.2,34.7,34.7,44.2,23,44.2z M31.5,14.5c-0.4-0.4-1-0.4-1.4,0L23,21.6l-7.2-7.2c-0.4-0.4-1-0.4-1.4,0s-0.4,1,0,1.4l7.2,7.2
			l-7.2,7.2c-0.4,0.4-0.4,1,0,1.4s1,0.4,1.4,0l7.2-7.2l7.2,7.2c0.4,0.4,1,0.4,1.4,0c0.4-0.4,0.4-1,0-1.4L24.4,23l7.2-7.2
			C31.9,15.5,31.9,14.9,31.5,14.5z"/>
	</g>
</g>
</svg>
