<?xml version="1.0" encoding="UTF-8"?>
<svg width="10px" height="10px" viewBox="0 0 10 10" version="1.1" xmlns="http://www.w3.org/2000/svg" xmlns:xlink="http://www.w3.org/1999/xlink">
    <!-- Generator: Sketch 48.2 (47327) - http://www.bohemiancoding.com/sketch -->
    <title>Shape_13_1_</title>
    <desc>Created with Sketch.</desc>
    <defs></defs>
    <g id="Page-1" stroke="none" stroke-width="1" fill="none" fill-rule="evenodd">
        <g id="error" fill="#FFFFFF">
            <g id="Shape_13_1_">
                <g id="Shape_13">
                    <path d="M9.71428571,8.57142857 L6.28571429,5.14285714 L6.28571429,4.85714286 L9.71428571,1.42857143 C9.71428571,1.42857143 10.2,0.771428571 9.71428571,0.285714286 C9.22857143,-0.2 8.57142857,0.285714286 8.57142857,0.285714286 L5.14285714,3.71428571 L4.85714286,3.71428571 C4.85714286,3.71428571 1.74285714,0.6 1.42857143,0.285714286 C1.11428571,-0.0285714286 0.542857143,-6.59194921e-16 0.285714286,0.285714286 C0.0285714286,0.571428571 0.285714286,1.42857143 0.285714286,1.42857143 L3.71428571,4.85714286 L3.71428571,5.14285714 L0.285714286,8.57142857 C0.285714286,8.57142857 -0.342857143,9.08571429 0.285714286,9.71428571 C0.914285714,10.3428571 1.42857143,9.71428571 1.42857143,9.71428571 L4.85714286,6.28571429 L5.14285714,6.28571429 L8.57142857,9.71428571 C8.57142857,9.71428571 9.11428571,10.3142857 9.71428571,9.71428571 C10.3142857,9.11428571 9.71428571,8.57142857 9.71428571,8.57142857 Z" id="Shape"></path>
                </g>
            </g>
        </g>
    </g>
</svg>