<?xml version="1.0" encoding="UTF-8"?>
<svg width="17px" height="18px" viewBox="0 0 17 18" version="1.1" xmlns="http://www.w3.org/2000/svg" xmlns:xlink="http://www.w3.org/1999/xlink">
    <!-- Generator: Sketch 48.2 (47327) - http://www.bohemiancoding.com/sketch -->
    <title>Shape</title>
    <desc>Created with Sketch.</desc>
    <defs></defs>
    <g id="Page-1" stroke="none" stroke-width="1" fill="none" fill-rule="evenodd">
        <g id="reload" fill="#BEC0C3" fill-rule="nonzero">
            <path d="M9.69627731,17.9500328 C13.3853028,17.5455653 16.3417826,14.659138 16.7625268,11.0483462 C17.3147537,6.32710716 13.5656218,2.30817083 8.86605873,2.25669314 L8.86605873,0.138754142 C8.86605873,0.0210908644 8.71579293,-0.0414177519 8.61436351,0.0321217967 L4.15898236,3.23476914 C4.08384946,3.2899238 4.08384946,3.39655614 4.15898236,3.45171081 L8.61436351,6.65435815 C8.71579293,6.7278977 8.86605873,6.6617121 8.86605873,6.5477258 L8.86605873,4.43346378 C12.1681498,4.48494146 14.812828,7.23532058 14.5874293,10.5225384 C14.3958404,13.350134 12.0404239,15.644568 9.15156376,15.8247399 C6.08989797,16.0159427 3.48654288,13.8759418 3.02071888,11.0446692 C2.93431604,10.5188614 2.4647354,10.1364558 1.9237785,10.1364558 C1.25133901,10.1364558 0.725408693,10.7210952 0.830594757,11.3719202 C1.48425101,15.4055644 5.28973255,18.4317169 9.69627731,17.9500328 Z" id="Shape"></path>
        </g>
    </g>
</svg>